# xmcd
#
# Track frame offsets:
#	150
#	14865
#	24337
#	34004
#	42456
#	51073
#	60575
#	71420
#	80172
#	93139
#	103144
#	115091
#	126550
#	136517
#	147669
#	156601
#	164123
#	174840
#
# Disc length: 2491 seconds
#
# Revision: 1
# Processed by: cddbd v1.5.2PL0 Copyright (c) Steve Scherf et al.
# Submitted via: EasyCDDAExtractor 12.0.6 .1
#
DISCID=0309b912
DTITLE=Banjo Band Ivana Mladka - Dobry Den
DYEAR=1900
DGENRE=
TTITLE0=Dasa Novakova
TTITLE1=Linda
TTITLE2=Neopatrny krecek
TTITLE3=Mravenci v kredenci
TTITLE4=Jahody trhala
TTITLE5=Svatebni holinky
TTITLE6=Bessie
TTITLE7=Mistr banjo
TTITLE8=Restaurace u Privozu
TTITLE9=Dasa jedla cukrovi
TTITLE10=Heleme se Nemele se
TTITLE11=Kdyz je v Praze hic
TTITLE12=Praha-Prcice
TTITLE13=Devce ze samoobsluhy
TTITLE14=Devce ze samoobsluhy
TTITLE15=Rychly Bill
TTITLE16=Medvedi nevedi
TTITLE17=Jez
EXTD=
EXTT0=
EXTT1=
EXTT2=
EXTT3=
EXTT4=
EXTT5=
EXTT6=
EXTT7=
EXTT8=
EXTT9=
EXTT10=
EXTT11=
EXTT12=
EXTT13=
EXTT14=
EXTT15=
EXTT16=
EXTT17=
PLAYORDER=
